<svg class="lds-gear-set" width="200px"  height="200px"  xmlns="http://www.w3.org/2000/svg" xmlns:xlink="http://www.w3.org/1999/xlink" viewBox="0 0 100 100" preserveAspectRatio="xMidYMid" style="background: none;"><g transform="translate(50 50)"> <g transform="translate(-17 -17) scale(0.5)"> <g transform="rotate(344.4)">
<animateTransform attributeName="transform" type="rotate" values="0;360" keyTimes="0;1" dur="200s" begin="0s" repeatCount="indefinite"></animateTransform><path d="M39.7994974842648 -4 L47.7994974842648 -4 L47.7994974842648 4 L39.7994974842648 4 A40 40 0 0 1 38.76737467025363 9.853459350714203 L38.76737467025363 9.853459350714203 L46.284915636540894 12.589620497319553 L43.54875448993555 20.107161463606822 L36.03121352364828 17.37100031700147 A40 40 0 0 1 33.05933432549495 22.51844608216009 L33.05933432549495 22.51844608216009 L39.187689870446775 27.660746959652403 L34.04538899295446 33.78910250460424 L27.917033448002634 28.64680162711192 A40 40 0 0 1 23.363850357270156 32.46737587922817 L23.363850357270156 32.46737587922817 L27.363850357270156 39.39557910950368 L20.43564712699465 43.39557910950368 L16.43564712699465 36.46737587922817 A40 40 0 0 1 10.850341222250995 38.500260977826116 L10.850341222250995 38.500260977826116 L12.239526643586439 46.37872300192378 L4.361064619488777 47.76790842325923 L2.971879198153334 39.889446399161564 A40 40 0 0 1 -2.9718791981533292 39.889446399161564 L-2.9718791981533292 39.889446399161564 L-4.361064619488772 47.76790842325923 L-12.239526643586432 46.37872300192379 L-10.85034122225099 38.50026097782612 A40 40 0 0 1 -16.43564712699464 36.46737587922817 L-16.43564712699464 36.46737587922817 L-20.43564712699464 43.39557910950368 L-27.363850357270145 39.395579109503686 L-23.363850357270145 32.46737587922818 A40 40 0 0 1 -27.917033448002634 28.64680162711192 L-27.917033448002634 28.64680162711192 L-34.04538899295446 33.78910250460424 L-39.18768987044677 27.66074695965242 L-33.059334325494945 22.518446082160104 A40 40 0 0 1 -36.031213523648276 17.371000317001474 L-36.031213523648276 17.371000317001474 L-43.54875448993554 20.107161463606825 L-46.284915636540894 12.589620497319565 L-38.76737467025363 9.853459350714214 A40 40 0 0 1 -39.7994974842648 4.000000000000003 L-39.7994974842648 4.000000000000003 L-47.7994974842648 4.0000000000000036 L-47.7994974842648 -3.999999999999992 L-39.7994974842648 -3.999999999999993 A40 40 0 0 1 -38.76737467025363 -9.853459350714203 L-38.76737467025363 -9.853459350714203 L-46.2849156365409 -12.589620497319553 L-43.548754489935554 -20.10716146360682 L-36.03121352364828 -17.371000317001467 A40 40 0 0 1 -33.05933432549495 -22.518446082160093 L-33.05933432549495 -22.518446082160093 L-39.187689870446775 -27.660746959652407 L-34.045388992954464 -33.78910250460423 L-27.91703344800264 -28.646801627111916 A40 40 0 0 1 -23.363850357270167 -32.467375879228165 L-23.363850357270167 -32.467375879228165 L-27.36385035727017 -39.39557910950367 L-20.435647126994667 -43.39557910950367 L-16.435647126994663 -36.467375879228165 A40 40 0 0 1 -10.85034122225099 -38.50026097782612 L-10.85034122225099 -38.50026097782612 L-12.239526643586432 -46.37872300192379 L-4.361064619488772 -47.76790842325923 L-2.9718791981533297 -39.889446399161564 A40 40 0 0 1 2.9718791981533155 -39.889446399161564 L2.9718791981533155 -39.889446399161564 L4.361064619488755 -47.76790842325923 L12.239526643586416 -46.378723001923795 L10.850341222250977 -38.50026097782613 A40 40 0 0 1 16.43564712699465 -36.46737587922817 L16.43564712699465 -36.46737587922817 L20.43564712699465 -43.39557910950368 L27.363850357270156 -39.39557910950368 L23.363850357270156 -32.46737587922817 A40 40 0 0 1 27.91703344800263 -28.646801627111923 L27.91703344800263 -28.646801627111923 L34.04538899295445 -33.78910250460424 L39.18768987044677 -27.660746959652425 L33.059334325494945 -22.518446082160107 A40 40 0 0 1 36.03121352364827 -17.371000317001496 L36.03121352364827 -17.371000317001496 L43.54875448993553 -20.10716146360685 L46.28491563654089 -12.58962049731959 L38.76737467025362 -9.853459350714235 A40 40 0 0 1 39.7994974842648 -4.000000000000007 M0 -30A30 30 0 1 0 0 30 A30 30 0 1 0 0 -30" fill="rgba(14.774193548387105%,14.774193548387105%,14.774193548387105%,0.097)"></path></g></g> <g transform="translate(0 22) scale(0.4)"> <g transform="rotate(5.60001)">
<animateTransform attributeName="transform" type="rotate" values="360;0" keyTimes="0;1" dur="100s" begin="-0.2777777777777778s" repeatCount="indefinite"></animateTransform><path d="M39.7994974842648 -4 L47.7994974842648 -4 L47.7994974842648 4 L39.7994974842648 4 A40 40 0 0 1 38.76737467025363 9.853459350714203 L38.76737467025363 9.853459350714203 L46.284915636540894 12.589620497319553 L43.54875448993555 20.107161463606822 L36.03121352364828 17.37100031700147 A40 40 0 0 1 33.05933432549495 22.51844608216009 L33.05933432549495 22.51844608216009 L39.187689870446775 27.660746959652403 L34.04538899295446 33.78910250460424 L27.917033448002634 28.64680162711192 A40 40 0 0 1 23.363850357270156 32.46737587922817 L23.363850357270156 32.46737587922817 L27.363850357270156 39.39557910950368 L20.43564712699465 43.39557910950368 L16.43564712699465 36.46737587922817 A40 40 0 0 1 10.850341222250995 38.500260977826116 L10.850341222250995 38.500260977826116 L12.239526643586439 46.37872300192378 L4.361064619488777 47.76790842325923 L2.971879198153334 39.889446399161564 A40 40 0 0 1 -2.9718791981533292 39.889446399161564 L-2.9718791981533292 39.889446399161564 L-4.361064619488772 47.76790842325923 L-12.239526643586432 46.37872300192379 L-10.85034122225099 38.50026097782612 A40 40 0 0 1 -16.43564712699464 36.46737587922817 L-16.43564712699464 36.46737587922817 L-20.43564712699464 43.39557910950368 L-27.363850357270145 39.395579109503686 L-23.363850357270145 32.46737587922818 A40 40 0 0 1 -27.917033448002634 28.64680162711192 L-27.917033448002634 28.64680162711192 L-34.04538899295446 33.78910250460424 L-39.18768987044677 27.66074695965242 L-33.059334325494945 22.518446082160104 A40 40 0 0 1 -36.031213523648276 17.371000317001474 L-36.031213523648276 17.371000317001474 L-43.54875448993554 20.107161463606825 L-46.284915636540894 12.589620497319565 L-38.76737467025363 9.853459350714214 A40 40 0 0 1 -39.7994974842648 4.000000000000003 L-39.7994974842648 4.000000000000003 L-47.7994974842648 4.0000000000000036 L-47.7994974842648 -3.999999999999992 L-39.7994974842648 -3.999999999999993 A40 40 0 0 1 -38.76737467025363 -9.853459350714203 L-38.76737467025363 -9.853459350714203 L-46.2849156365409 -12.589620497319553 L-43.548754489935554 -20.10716146360682 L-36.03121352364828 -17.371000317001467 A40 40 0 0 1 -33.05933432549495 -22.518446082160093 L-33.05933432549495 -22.518446082160093 L-39.187689870446775 -27.660746959652407 L-34.045388992954464 -33.78910250460423 L-27.91703344800264 -28.646801627111916 A40 40 0 0 1 -23.363850357270167 -32.467375879228165 L-23.363850357270167 -32.467375879228165 L-27.36385035727017 -39.39557910950367 L-20.435647126994667 -43.39557910950367 L-16.435647126994663 -36.467375879228165 A40 40 0 0 1 -10.85034122225099 -38.50026097782612 L-10.85034122225099 -38.50026097782612 L-12.239526643586432 -46.37872300192379 L-4.361064619488772 -47.76790842325923 L-2.9718791981533297 -39.889446399161564 A40 40 0 0 1 2.9718791981533155 -39.889446399161564 L2.9718791981533155 -39.889446399161564 L4.361064619488755 -47.76790842325923 L12.239526643586416 -46.378723001923795 L10.850341222250977 -38.50026097782613 A40 40 0 0 1 16.43564712699465 -36.46737587922817 L16.43564712699465 -36.46737587922817 L20.43564712699465 -43.39557910950368 L27.363850357270156 -39.39557910950368 L23.363850357270156 -32.46737587922817 A40 40 0 0 1 27.91703344800263 -28.646801627111923 L27.91703344800263 -28.646801627111923 L34.04538899295445 -33.78910250460424 L39.18768987044677 -27.660746959652425 L33.059334325494945 -22.518446082160107 A40 40 0 0 1 36.03121352364827 -17.371000317001496 L36.03121352364827 -17.371000317001496 L43.54875448993553 -20.10716146360685 L46.28491563654089 -12.58962049731959 L38.76737467025362 -9.853459350714235 A40 40 0 0 1 39.7994974842648 -4.000000000000007 M0 -30A30 30 0 1 0 0 30 A30 30 0 1 0 0 -30" fill="rgba(59.225806451612904%,59.225806451612904%,59.225806451612904%,0.425)"></path></g></g> <g transform="translate(28 4) scale(0.3)"> <g transform="rotate(354.4)">
<animateTransform attributeName="transform" type="rotate" values="0;360" keyTimes="0;1" dur="60s" begin="-0.2777777777777778s" repeatCount="indefinite"></animateTransform><path d="M39.7994974842648 -4 L47.7994974842648 -4 L47.7994974842648 4 L39.7994974842648 4 A40 40 0 0 1 38.76737467025363 9.853459350714203 L38.76737467025363 9.853459350714203 L46.284915636540894 12.589620497319553 L43.54875448993555 20.107161463606822 L36.03121352364828 17.37100031700147 A40 40 0 0 1 33.05933432549495 22.51844608216009 L33.05933432549495 22.51844608216009 L39.187689870446775 27.660746959652403 L34.04538899295446 33.78910250460424 L27.917033448002634 28.64680162711192 A40 40 0 0 1 23.363850357270156 32.46737587922817 L23.363850357270156 32.46737587922817 L27.363850357270156 39.39557910950368 L20.43564712699465 43.39557910950368 L16.43564712699465 36.46737587922817 A40 40 0 0 1 10.850341222250995 38.500260977826116 L10.850341222250995 38.500260977826116 L12.239526643586439 46.37872300192378 L4.361064619488777 47.76790842325923 L2.971879198153334 39.889446399161564 A40 40 0 0 1 -2.9718791981533292 39.889446399161564 L-2.9718791981533292 39.889446399161564 L-4.361064619488772 47.76790842325923 L-12.239526643586432 46.37872300192379 L-10.85034122225099 38.50026097782612 A40 40 0 0 1 -16.43564712699464 36.46737587922817 L-16.43564712699464 36.46737587922817 L-20.43564712699464 43.39557910950368 L-27.363850357270145 39.395579109503686 L-23.363850357270145 32.46737587922818 A40 40 0 0 1 -27.917033448002634 28.64680162711192 L-27.917033448002634 28.64680162711192 L-34.04538899295446 33.78910250460424 L-39.18768987044677 27.66074695965242 L-33.059334325494945 22.518446082160104 A40 40 0 0 1 -36.031213523648276 17.371000317001474 L-36.031213523648276 17.371000317001474 L-43.54875448993554 20.107161463606825 L-46.284915636540894 12.589620497319565 L-38.76737467025363 9.853459350714214 A40 40 0 0 1 -39.7994974842648 4.000000000000003 L-39.7994974842648 4.000000000000003 L-47.7994974842648 4.0000000000000036 L-47.7994974842648 -3.999999999999992 L-39.7994974842648 -3.999999999999993 A40 40 0 0 1 -38.76737467025363 -9.853459350714203 L-38.76737467025363 -9.853459350714203 L-46.2849156365409 -12.589620497319553 L-43.548754489935554 -20.10716146360682 L-36.03121352364828 -17.371000317001467 A40 40 0 0 1 -33.05933432549495 -22.518446082160093 L-33.05933432549495 -22.518446082160093 L-39.187689870446775 -27.660746959652407 L-34.045388992954464 -33.78910250460423 L-27.91703344800264 -28.646801627111916 A40 40 0 0 1 -23.363850357270167 -32.467375879228165 L-23.363850357270167 -32.467375879228165 L-27.36385035727017 -39.39557910950367 L-20.435647126994667 -43.39557910950367 L-16.435647126994663 -36.467375879228165 A40 40 0 0 1 -10.85034122225099 -38.50026097782612 L-10.85034122225099 -38.50026097782612 L-12.239526643586432 -46.37872300192379 L-4.361064619488772 -47.76790842325923 L-2.9718791981533297 -39.889446399161564 A40 40 0 0 1 2.9718791981533155 -39.889446399161564 L2.9718791981533155 -39.889446399161564 L4.361064619488755 -47.76790842325923 L12.239526643586416 -46.378723001923795 L10.850341222250977 -38.50026097782613 A40 40 0 0 1 16.43564712699465 -36.46737587922817 L16.43564712699465 -36.46737587922817 L20.43564712699465 -43.39557910950368 L27.363850357270156 -39.39557910950368 L23.363850357270156 -32.46737587922817 A40 40 0 0 1 27.91703344800263 -28.646801627111923 L27.91703344800263 -28.646801627111923 L34.04538899295445 -33.78910250460424 L39.18768987044677 -27.660746959652425 L33.059334325494945 -22.518446082160107 A40 40 0 0 1 36.03121352364827 -17.371000317001496 L36.03121352364827 -17.371000317001496 L43.54875448993553 -20.10716146360685 L46.28491563654089 -12.58962049731959 L38.76737467025362 -9.853459350714235 A40 40 0 0 1 39.7994974842648 -4.000000000000007 M0 -30A30 30 0 1 0 0 30 A30 30 0 1 0 0 -30" fill="rgba(4.683962264150937%,66.42415702982352%,100%,0.3)"></path></g></g></g></svg>