<svg class="lds-gears" width="200px"  height="200px"  xmlns="http://www.w3.org/2000/svg" xmlns:xlink="http://www.w3.org/1999/xlink" viewBox="0 0 100 100" preserveAspectRatio="xMidYMid" style="background: none;"><g transform="translate(50 50)"> <g transform="translate(-19 -19) scale(0.6)"> <g transform="rotate(88.8)">
<animateTransform attributeName="transform" type="rotate" values="0;360" keyTimes="0;1" dur="10s" begin="0s" repeatCount="indefinite"></animateTransform><path d="M37.3496987939662 -7 L45.3496987939662 -7 L45.3496987939662 7 L37.3496987939662 7 A38 38 0 0 1 31.359972760794346 21.46047782418268 L31.359972760794346 21.46047782418268 L37.016827010286725 27.11733207367506 L27.11733207367506 37.016827010286725 L21.46047782418268 31.359972760794346 A38 38 0 0 1 7.0000000000000036 37.3496987939662 L7.0000000000000036 37.3496987939662 L7.0000000000000036 45.3496987939662 L-7 45.3496987939662 L-7 37.3496987939662 A38 38 0 0 1 -21.46047782418268 31.35997276079435 L-21.46047782418268 31.35997276079435 L-27.11733207367506 37.01682701028673 L-37.016827010286725 27.117332073675062 L-31.359972760794346 21.460477824182682 A38 38 0 0 1 -37.3496987939662 7.000000000000007 L-37.3496987939662 7.000000000000007 L-45.3496987939662 7.000000000000008 L-45.3496987939662 -6.9999999999999964 L-37.3496987939662 -6.999999999999997 A38 38 0 0 1 -31.35997276079435 -21.460477824182675 L-31.35997276079435 -21.460477824182675 L-37.01682701028673 -27.11733207367505 L-27.117332073675083 -37.01682701028671 L-21.4604778241827 -31.35997276079433 A38 38 0 0 1 -6.999999999999992 -37.3496987939662 L-6.999999999999992 -37.3496987939662 L-6.999999999999994 -45.3496987939662 L6.999999999999977 -45.3496987939662 L6.999999999999979 -37.3496987939662 A38 38 0 0 1 21.460477824182686 -31.359972760794342 L21.460477824182686 -31.359972760794342 L27.117332073675065 -37.016827010286725 L37.01682701028671 -27.11733207367508 L31.35997276079433 -21.4604778241827 A38 38 0 0 1 37.3496987939662 -6.999999999999995 M0 -30A30 30 0 1 0 0 30 A30 30 0 1 0 0 -30" fill="#f3f3f3"></path></g></g> <g transform="translate(19 19) scale(0.6)"> <g transform="rotate(248.7)">
<animateTransform attributeName="transform" type="rotate" values="360;0" keyTimes="0;1" dur="10s" begin="-0.625s" repeatCount="indefinite"></animateTransform><path d="M37.3496987939662 -7 L45.3496987939662 -7 L45.3496987939662 7 L37.3496987939662 7 A38 38 0 0 1 31.359972760794346 21.46047782418268 L31.359972760794346 21.46047782418268 L37.016827010286725 27.11733207367506 L27.11733207367506 37.016827010286725 L21.46047782418268 31.359972760794346 A38 38 0 0 1 7.0000000000000036 37.3496987939662 L7.0000000000000036 37.3496987939662 L7.0000000000000036 45.3496987939662 L-7 45.3496987939662 L-7 37.3496987939662 A38 38 0 0 1 -21.46047782418268 31.35997276079435 L-21.46047782418268 31.35997276079435 L-27.11733207367506 37.01682701028673 L-37.016827010286725 27.117332073675062 L-31.359972760794346 21.460477824182682 A38 38 0 0 1 -37.3496987939662 7.000000000000007 L-37.3496987939662 7.000000000000007 L-45.3496987939662 7.000000000000008 L-45.3496987939662 -6.9999999999999964 L-37.3496987939662 -6.999999999999997 A38 38 0 0 1 -31.35997276079435 -21.460477824182675 L-31.35997276079435 -21.460477824182675 L-37.01682701028673 -27.11733207367505 L-27.117332073675083 -37.01682701028671 L-21.4604778241827 -31.35997276079433 A38 38 0 0 1 -6.999999999999992 -37.3496987939662 L-6.999999999999992 -37.3496987939662 L-6.999999999999994 -45.3496987939662 L6.999999999999977 -45.3496987939662 L6.999999999999979 -37.3496987939662 A38 38 0 0 1 21.460477824182686 -31.359972760794342 L21.460477824182686 -31.359972760794342 L27.117332073675065 -37.016827010286725 L37.01682701028671 -27.11733207367508 L31.35997276079433 -21.4604778241827 A38 38 0 0 1 37.3496987939662 -6.999999999999995 M0 -30A30 30 0 1 0 0 30 A30 30 0 1 0 0 -30" fill="#daf2ff"></path></g></g></g></svg>